<?xml version="1.0" standalone="no"?>
<svg xmlns="http://www.w3.org/2000/svg" viewBox="0 0 88.636 36" width="88.636" height="36"><g fill="#fdfdfd" color="#fdfdfd" transform="translate(0 3.9999999999999982) scale(0.2800001)"><svg width="100.0" height="100.0" x="0.0" y="0.0" viewBox="0 0 100 100"><path d="M82.35,57.64L97.12,42.87l-4.24-4.24L78.21,53.3L52.22,27.31l3.48-3.48l-4.25-4.24L38.02,33.03c-0.01,0-0.71,0.65-1.63,0.95  c-0.79,0.27-1.78,0.36-3.09-0.95c-2-2-0.84-3.83,0-4.72l15.68-15.67c0.01-0.01,0.71-0.65,1.62-0.96c0.8-0.26,1.78-0.35,3.09,0.96  l9.96,9.96l6.6-6.6l-4.24-4.24l-2.359,2.35L57.94,8.4c-2.65-2.65-5.931-3.51-9.23-2.41c-2.29,0.76-3.81,2.24-3.97,2.41l-5.72,5.71  l-4.6-4.59l-4.24,4.24l4.6,4.6l-5.72,5.71c-0.16,0.17-1.64,1.69-2.4,3.97c-1.1,3.3-0.25,6.58,2.4,9.23c1.9,1.9,4.11,2.87,6.43,2.87  c0.92,0,1.86-0.15,2.8-0.47c2.28-0.76,3.81-2.23,3.97-2.4l5.72-5.72L77.2,60.78c0.01,0.01,0.649,0.71,0.96,1.63  c0.26,0.79,0.35,1.77-0.96,3.09c-2,2-3.82,0.84-4.71,0L60.17,53.18l-4.24,4.24l12.44,12.44c0.01,0.01,0.02,0.01,0.03,0.029  c0.63,0.71,1.869,2.551-0.15,4.561c-2,2-3.83,0.85-4.72,0L51.22,62.14l-4.24,4.24l1.11,1.12h0.01L59.27,78.67  c0.011,0.01,0.021,0.021,0.021,0.03c0.01,0.01,0.03,0.03,0.04,0.03c0.86,0.92,1.92,2.72-0.04,4.68c-2,2-3.83,0.85-4.71,0l-8.76-8.76  c0.87-2.75,0.59-6.12-2.44-9.15c-0.93-0.93-1.87-1.58-2.77-2.01c2.35-2.851,3.89-8.07-0.59-12.55c-2.37-2.37-4.81-2.87-6.43-2.87  c-3.79,0-6.47,2.58-6.77,2.87l-2.36,2.36L7.55,36.39l-4.24,4.24l16.91,16.91l-3.47,3.479c-0.17,0.16-1.65,1.681-2.41,3.971  c-1.1,3.3-0.24,6.58,2.41,9.229c2.21,2.21,4.48,2.8,6.09,2.86c0.09,2.189,1.06,4.29,2.86,6.09c2.21,2.22,4.49,2.8,6.1,2.86  c0.07,2,0.88,4.12,2.86,6.1c2.09,2.09,4.33,2.87,6.43,2.87c2.76,0,5.26-1.36,6.77-2.87l3.56-3.56c1.5,1.109,3.51,1.949,5.68,1.949  c2.101,0,4.351-0.779,6.431-2.869c1.979-1.98,2.79-4.101,2.859-6.101c2-0.069,4.12-0.88,6.101-2.85  C74.47,76.72,75.27,74.6,75.35,72.6c2.19-0.09,4.29-1.06,6.101-2.859c2.649-2.65,3.5-5.931,2.399-9.23  C83.45,59.32,82.86,58.33,82.35,57.64z M25.7,69.98c-0.36,0.34-1.44,1.109-2.52,1.109c-0.27,0-1.08,0-2.19-1.109  c-2-2.011-0.85-3.83,0-4.721l3.47-3.479l4.24-4.24l2.36-2.36c0.02-0.01,1.22-1.109,2.53-1.109c0.26,0,1.08,0,2.19,1.109  c2,2.011,0.84,3.83,0,4.721l-2.36,2.359l-3.02,3.03l-1.22,1.21l-3.45,3.45C25.72,69.96,25.71,69.97,25.7,69.98z M32.14,80.04  c-0.27,0-1.08,0-2.19-1.11c-2.01-2-0.85-3.83,0-4.71l3.47-3.479l0.98-0.98c0.33-0.31,1.43-1.13,2.55-1.13c0.26,0,1.08,0,2.19,1.11  c2,2,0.84,3.83,0,4.71l-1,1.01l-0.12,0.11l-3.36,3.359C34.32,79.25,33.23,80.04,32.14,80.04z M43.62,87.89  c-0.56,0.551-2.53,2.19-4.72,0c-1.94-1.939-0.9-3.729-0.08-4.64c0.03-0.03,0.06-0.05,0.08-0.08l3.36-3.35l0.12-0.12l4.71,4.71  L43.62,87.89z"></path></svg></g><path fill="#ffffff" fill-rule="nonzero" d="M0 16.85L0 16.85L2.98 0.36Q3 0.26 3.10 0.26L3.10 0.26L6.58 0.26Q6.67 0.26 6.70 0.36L6.70 0.36L9.55 16.85Q9.58 16.97 9.46 16.97L9.46 16.97L6.79 16.97Q6.70 16.97 6.67 16.85L6.67 16.85L6.41 15.10L3.14 15.10L2.88 16.85Q2.86 16.97 2.76 16.97L2.76 16.97L0.10 16.97Q0 16.97 0 16.85ZM4.70 5.78L3.62 12.53L5.93 12.53L4.94 5.78L4.80 4.90L4.70 5.78ZM14.95 17.21L14.95 17.21Q13.66 17.21 12.60 16.56Q11.54 15.91 10.91 14.82Q10.27 13.73 10.27 12.38L10.27 12.38L10.27 4.78Q10.27 3.48 10.91 2.39Q11.54 1.30 12.61 0.65Q13.68 0 14.95 0L14.95 0Q16.27 0 17.34 0.64Q18.41 1.27 19.03 2.35Q19.66 3.43 19.66 4.78L19.66 4.78L19.66 5.88Q19.66 5.98 19.54 5.98L19.54 5.98L16.85 5.98Q16.75 5.98 16.75 5.88L16.75 5.88L16.75 4.97Q16.75 4.06 16.24 3.46Q15.72 2.86 14.95 2.86L14.95 2.86Q14.26 2.86 13.72 3.43Q13.18 4.01 13.18 4.78L13.18 4.78L13.18 12.38Q13.18 13.18 13.70 13.74Q14.23 14.30 14.95 14.30L14.95 14.30Q15.72 14.30 16.24 13.75Q16.75 13.20 16.75 12.38L16.75 12.38L16.75 11.21L15.07 11.21Q14.95 11.21 14.95 11.09L14.95 11.09L14.95 8.40Q14.95 8.28 15.07 8.28L15.07 8.28L19.56 8.28Q19.66 8.28 19.66 8.40L19.66 8.40L19.66 12.38Q19.66 13.73 19.02 14.82Q18.38 15.91 17.33 16.56Q16.27 17.21 14.95 17.21ZM25.80 17.21L25.80 17.21Q24.50 17.21 23.44 16.55Q22.37 15.89 21.72 14.80Q21.07 13.70 21.07 12.38L21.07 12.38L21.10 4.78Q21.10 3.46 21.73 2.38Q22.37 1.30 23.45 0.65Q24.53 0 25.80 0L25.80 0Q27.10 0 28.15 0.65Q29.21 1.30 29.84 2.38Q30.48 3.46 30.48 4.78L30.48 4.78L30.50 12.38Q30.50 13.70 29.87 14.80Q29.23 15.89 28.16 16.55Q27.10 17.21 25.80 17.21ZM25.80 14.30L25.80 14.30Q26.52 14.30 27.06 13.72Q27.60 13.13 27.60 12.38L27.60 12.38L27.58 4.78Q27.58 3.98 27.07 3.43Q26.57 2.88 25.80 2.88L25.80 2.88Q25.06 2.88 24.53 3.42Q24 3.96 24 4.78L24 4.78L24 12.38Q24 13.18 24.53 13.74Q25.06 14.30 25.80 14.30ZM35.14 16.97L32.42 16.97Q32.33 16.97 32.33 16.85L32.33 16.85L32.38 0.36Q32.38 0.26 32.47 0.26L32.47 0.26L37.32 0.26Q38.62 0.26 39.71 0.90Q40.80 1.54 41.45 2.60Q42.10 3.67 42.10 5.02L42.10 5.02Q42.10 5.90 41.83 6.61Q41.57 7.32 41.21 7.81Q40.85 8.30 40.56 8.54L40.56 8.54Q41.86 9.98 41.86 11.93L41.86 11.93L41.88 16.85Q41.88 16.97 41.76 16.97L41.76 16.97L39.05 16.97Q38.95 16.97 38.95 16.90L38.95 16.90L38.95 11.93Q38.95 11.06 38.34 10.43Q37.73 9.79 36.84 9.79L36.84 9.79L35.26 9.79L35.23 16.85Q35.23 16.97 35.14 16.97L35.14 16.97ZM35.26 3.14L35.26 6.91L37.32 6.91Q38.06 6.91 38.64 6.36Q39.22 5.81 39.22 5.02L39.22 5.02Q39.22 4.25 38.65 3.70Q38.09 3.14 37.32 3.14L37.32 3.14L35.26 3.14ZM43.08 16.85L43.08 16.85L46.06 0.36Q46.08 0.26 46.18 0.26L46.18 0.26L49.66 0.26Q49.75 0.26 49.78 0.36L49.78 0.36L52.63 16.85Q52.66 16.97 52.54 16.97L52.54 16.97L49.87 16.97Q49.78 16.97 49.75 16.85L49.75 16.85L49.49 15.10L46.22 15.10L45.96 16.85Q45.94 16.97 45.84 16.97L45.84 16.97L43.18 16.97Q43.08 16.97 43.08 16.85ZM47.78 5.78L46.70 12.53L49.01 12.53L48.02 5.78L47.88 4.90L47.78 5.78Z" transform="translate(36, 9.516)"></path></svg>