<?xml version="1.0" standalone="no"?>
<svg xmlns="http://www.w3.org/2000/svg" viewBox="0 0 88.395 36" width="88.395" height="36"><g fill="#fdfdfd" color="#fdfdfd" transform="translate(0 4.049494612200331) scale(0.1484097)"><svg width="188.667" height="188.0" x="0.0" y="0.0" viewBox="0 0 188.667 188"><polygon points="35.528,54.748 49.431,25.948 51.02,22.655 23.874,9.554 6.046,46.487 33.192,59.586 "></polygon><path d="M78.233,76.115c1.914,0.97,5.419,2.357,9.501,3.64c5.607,1.761,12.308,3.322,17.526,3.322c1.127,0,2.175-0.082,3.136-0.241  c1.969-0.326,3.547-1.005,4.491-2.173c11.727-12.889-21.541-14.124-24.562-20.555c2.05-1.993,4.966-2.778,8.284-2.778  c9.372,0,21.945,6.263,27.233,9.226c7.026,3.932,13.503,8.823,19.435,14.255c2.775,3.075,6.796,7.611,10.877,7.611  c1.297,0,2.601-0.458,3.872-1.568c-0.034,0.029-0.065,0.058-0.096,0.084c0.03-0.026,0.064-0.055,0.101-0.086  c10.653-9.103-21.062-33.009-27.691-38.319C116.373,37.337,99.2,27.256,80.778,27.256c-0.531,0-1.062,0.009-1.595,0.025  c-3.066,0.099-14.628,4.553-17.742,4.553c-0.26,0-0.46-0.031-0.593-0.098l-8.538-4.328L38.379,56.271  C51.502,63.295,64.69,70.336,78.233,76.115z"></path><path d="M136.607,126.501l-26.47-40.97c-1.417,0.358-3.039,0.545-4.877,0.545c-6.212,0-14.438-2.071-20.771-4.226L60.603,97.279  l18.879,29.222H7.184v59h178v-59H136.607z M179.184,179.501h-166v-47h70.174l13.027,20.163H56.489v7h81.847v-7h-27.784  l30.311-19.576l-0.379-0.587h38.7V179.501z"></path></svg></g><path fill="#ffffff" fill-rule="nonzero" d="M0 20.02L3.69 0L7.18 0L10.89 20.02L7.82 20.02L7.27 16.43L3.61 16.43L3.08 20.02L0 20.02ZM3.96 14.14L6.91 14.14L5.51 4.17L5.38 4.17L3.96 14.14ZM12.95 21.12L15.05 21.12Q15.05 22.16 15.43 22.59Q15.82 23.03 16.63 23.03L16.63 23.03Q16.96 23.03 17.26 22.93Q17.57 22.83 17.79 22.56Q18.02 22.30 18.16 21.83Q18.30 21.36 18.30 20.63L18.30 20.63L18.30 18.08Q17.91 18.60 17.28 18.97Q16.65 19.34 15.73 19.34L15.73 19.34Q15.46 19.34 15.09 19.28Q14.73 19.23 14.34 19.04Q13.96 18.86 13.58 18.47Q13.21 18.09 12.91 17.45Q12.62 16.80 12.44 15.84Q12.26 14.87 12.26 13.50L12.26 13.50L12.26 9.26Q12.26 7.95 12.44 7.03Q12.62 6.11 12.91 5.48Q13.21 4.86 13.59 4.51Q13.97 4.16 14.36 3.98Q14.75 3.80 15.13 3.75Q15.50 3.70 15.80 3.70L15.80 3.70Q16.38 3.70 16.83 3.86Q17.29 4.01 17.62 4.26Q17.95 4.51 18.19 4.83Q18.42 5.14 18.59 5.46L18.59 5.46L18.86 3.87L21.16 3.87L21.16 19.36Q21.16 20.71 20.91 21.79Q20.65 22.88 20.10 23.64Q19.55 24.41 18.70 24.82Q17.85 25.23 16.66 25.23L16.66 25.23Q15.87 25.23 15.16 25.09Q14.46 24.95 13.93 24.59Q13.41 24.23 13.10 23.62Q12.80 23.00 12.80 22.05L12.80 22.05Q12.80 21.89 12.83 21.64Q12.87 21.40 12.95 21.12L12.95 21.12ZM16.73 17.04L16.73 17.04Q17.03 17.04 17.26 16.94Q17.48 16.84 17.67 16.68Q17.85 16.51 17.98 16.30Q18.12 16.09 18.21 15.87L18.21 15.87L18.21 7.04Q17.99 6.55 17.62 6.21Q17.25 5.86 16.72 5.86L16.72 5.86Q16.39 5.86 16.13 5.98Q15.86 6.09 15.66 6.42Q15.46 6.74 15.35 7.31Q15.23 7.88 15.23 8.78L15.23 8.78L15.23 14.09Q15.23 14.99 15.35 15.56Q15.46 16.14 15.66 16.46Q15.86 16.79 16.13 16.92Q16.41 17.04 16.73 17.04ZM28.34 20.19L28.34 20.19Q27.82 20.19 27.29 20.11Q26.75 20.03 26.26 19.77Q25.76 19.51 25.32 19.03Q24.88 18.55 24.55 17.77Q24.22 16.98 24.04 15.83Q23.85 14.68 23.85 13.09L23.85 13.09L23.85 10.56Q23.85 8.99 24.04 7.87Q24.23 6.75 24.57 5.99Q24.90 5.23 25.35 4.78Q25.79 4.32 26.29 4.08Q26.79 3.84 27.32 3.77Q27.84 3.69 28.35 3.69L28.35 3.69Q28.83 3.69 29.34 3.76Q29.86 3.83 30.35 4.06Q30.84 4.29 31.28 4.74Q31.72 5.19 32.06 5.95Q32.39 6.71 32.58 7.85Q32.78 8.98 32.78 10.56L32.78 10.56L32.78 13.09Q32.78 14.66 32.58 15.80Q32.38 16.93 32.04 17.72Q31.70 18.50 31.25 18.99Q30.81 19.48 30.32 19.75Q29.82 20.02 29.31 20.10Q28.80 20.19 28.34 20.19ZM28.36 17.91L28.36 17.91Q28.76 17.91 29.03 17.70Q29.31 17.50 29.48 17.03Q29.65 16.56 29.72 15.79Q29.80 15.02 29.80 13.89L29.80 13.89L29.80 9.91Q29.80 8.78 29.72 8.00Q29.65 7.23 29.48 6.76Q29.31 6.28 29.03 6.07Q28.76 5.86 28.36 5.86L28.36 5.86Q27.94 5.86 27.65 6.07Q27.36 6.28 27.18 6.76Q26.99 7.23 26.91 8.00Q26.82 8.78 26.82 9.91L26.82 9.91L26.82 13.89Q26.82 15.02 26.91 15.79Q26.99 16.56 27.18 17.03Q27.36 17.50 27.65 17.70Q27.94 17.91 28.36 17.91ZM35.40 20.02L35.40 3.88L37.57 3.88L37.83 5.52Q38.32 4.61 38.96 4.15Q39.60 3.69 40.27 3.69L40.27 3.69Q41.54 3.69 42.15 4.48Q42.76 5.26 42.76 6.83L42.76 6.83Q42.76 7.03 42.73 7.31Q42.70 7.58 42.65 7.88Q42.60 8.18 42.52 8.48Q42.45 8.78 42.36 9.02L42.36 9.02L40.30 9.02L40.30 7.52Q40.30 7.03 40.24 6.71Q40.17 6.40 40.07 6.21Q39.96 6.01 39.82 5.94Q39.68 5.86 39.52 5.86L39.52 5.86Q39.16 5.86 38.87 6.09Q38.57 6.32 38.37 6.73L38.37 6.73L38.37 20.02L35.40 20.02ZM46.86 20.19L46.86 20.19Q46.11 20.19 45.53 19.89Q44.95 19.59 44.55 19.08Q44.16 18.56 43.95 17.85Q43.75 17.14 43.75 16.31L43.75 16.31Q43.75 15.32 43.99 14.54Q44.24 13.77 44.71 13.15Q45.19 12.53 45.89 12.02Q46.59 11.51 47.52 11.05L47.52 11.05Q47.96 10.83 48.52 10.60Q49.08 10.37 49.51 10.21L49.51 10.21L49.51 8.07Q49.51 7.61 49.48 7.20Q49.44 6.80 49.31 6.50Q49.17 6.20 48.90 6.03Q48.63 5.86 48.16 5.86L48.16 5.86Q47.85 5.86 47.55 5.98Q47.25 6.09 47.02 6.38Q46.79 6.66 46.66 7.13Q46.52 7.59 46.52 8.29L46.52 8.29L46.52 8.99L44.26 8.99Q44.16 8.53 44.10 8.15Q44.05 7.77 44.05 7.39L44.05 7.39Q44.05 6.49 44.36 5.80Q44.67 5.11 45.23 4.64Q45.79 4.17 46.56 3.93Q47.33 3.69 48.26 3.69L48.26 3.69Q49.46 3.69 50.26 3.96Q51.06 4.22 51.53 4.75Q52.01 5.27 52.20 6.07Q52.39 6.87 52.39 7.93L52.39 7.93L52.39 20.02L50.19 20.02L49.98 18.63Q49.50 19.32 48.70 19.76Q47.89 20.19 46.86 20.19ZM48.18 17.91L48.18 17.91Q48.55 17.91 48.91 17.71Q49.27 17.52 49.51 17.24L49.51 17.24L49.51 12.19Q49.28 12.28 48.98 12.41Q48.69 12.54 48.35 12.75L48.35 12.75Q48.04 12.95 47.73 13.23Q47.43 13.51 47.19 13.90Q46.95 14.29 46.80 14.77Q46.65 15.26 46.65 15.86L46.65 15.86Q46.65 16.78 47.02 17.34Q47.38 17.91 48.18 17.91Z" transform="translate(36, 7.993)"></path></svg>